# xmcd CD database file
#
# Track frame offsets:
#	150
#	32562
#	60731
#	88961
#	128346
#	178177
#	206849
#	230492
#	263031
#
# Disc length: 3892 seconds
#
# Revision: 0
# Processed by: cddbd v1.5.1PL0 Copyright (c) Steve Scherf et al.
# Submitted via: CDex 1.51
#
DISCID=7a0f3209
DTITLE=Sabakoe - Na grontapu e dray so
DYEAR=2000
DGENRE=Salsa
TTITLE0=Na fraga ne way so moro
TTITLE1=Mi ne gro law - law
TTITLE2=Walz Medley
TTITLE3=Tu lemtji
TTITLE4=Na grontapu e dray so
TTITLE5=Aisa e kar amadja
TTITLE6=Luwangu
TTITLE7=Sjambura
TTITLE8=Sabaku prisiri
EXTD=YEAR: 2000
EXTT0=
EXTT1=
EXTT2=
EXTT3=
EXTT4=
EXTT5=
EXTT6=
EXTT7=
EXTT8=
PLAYORDER=
